<?xml version="1.0" standalone="no"?>
<!DOCTYPE svg PUBLIC "-//W3C//DTD SVG 20010904//EN"
 "http://www.w3.org/TR/2001/REC-SVG-20010904/DTD/svg10.dtd">
<svg version="1.0" xmlns="http://www.w3.org/2000/svg"
 width="512.000000pt" height="512.000000pt" viewBox="0 0 512.000000 512.000000"
 preserveAspectRatio="xMidYMid meet">
<metadata>
Created by potrace 1.11, written by Peter Selinger 2001-2013
</metadata>
<g transform="translate(0.000000,512.000000) scale(0.100000,-0.100000)"
fill="#000000" stroke="none">
<path d="M330 4150 l0 -190 545 0 545 0 0 -1520 0 -1520 230 0 230 0 0 1520 0
1520 205 0 205 0 0 -1520 0 -1520 230 0 230 0 0 690 0 690 396 -2 397 -3 367
-685 368 -685 251 -3 c204 -2 251 0 251 11 0 7 -180 339 -400 736 -221 398
-399 725 -398 726 2 1 28 12 58 24 118 50 258 148 341 239 188 206 268 462
239 768 -19 205 -62 339 -156 480 -139 211 -365 342 -699 406 -109 22 -126 22
-1772 25 l-1663 4 0 -191z m3225 -200 c397 -45 605 -264 605 -638 0 -263 -117
-454 -346 -562 -143 -67 -184 -72 -646 -77 l-418 -5 0 646 0 646 358 0 c196 0
398 -5 447 -10z"/>
</g>
</svg>
